<svg xmlns:xlink="http://www.w3.org/1999/xlink" viewBox="0 0 24 24" fill="currentColor">
    <defs>
        <path id="a" d="M12 1.25c5.841 0 10.594 4.659 10.746 10.464l.004.286c0 3.042-1.281 4.75-3.75 4.75-2.469 0-3.75-1.708-3.75-4.75a3.25 3.25 0 10-1.62 2.812.75.75 0 11.755 1.297 4.75 4.75 0 11.867-7.572L15.25 8a.75.75 0 111.5 0v4c0 2.292.719 3.25 2.25 3.25 1.531 0 2.25-.958 2.25-3.25A9.25 9.25 0 1012 21.25a9.2 9.2 0 005.524-1.83.75.75 0 01.897 1.202A10.704 10.704 0 0112 22.75C6.063 22.75 1.25 17.937 1.25 12S6.063 1.25 12 1.25z"/>
    </defs>
    <g fill="none" fill-rule="evenodd">
        <mask id="b" fill="#fff">
            <use xlink:href="#a"/>
        </mask>
        <use fill="#333" fill-rule="nonzero" xlink:href="#a"/>
        <g fill="#333" mask="url(#b)">
            <path d="M0 0h24v24H0z"/>
        </g>
    </g>
</svg>
