<svg xmlns:xlink="http://www.w3.org/1999/xlink" viewBox="0 0 24 24" fill="currentColor">
    <defs>
        <path id="a" d="M3 19.75a.75.75 0 01-.102-1.493L3 18.25h.75V15a.75.75 0 01.75-.75h3a.75.75 0 01.75.75v3.25h1.5V11a.75.75 0 01.75-.75h3a.75.75 0 01.75.75v7.25h1.5V5a.75.75 0 01.75-.75h3a.75.75 0 01.75.75v13.25H21a.75.75 0 01.743.648l.007.102a.75.75 0 01-.648.743L21 19.75H3zm3.75-4h-1.5v2.5h1.5v-2.5zm6-4h-1.5v6.5h1.5v-6.5zm6-6h-1.5v12.5h1.5V5.75z"/>
    </defs>
    <g fill="none" fill-rule="evenodd">
        <mask id="b" fill="#fff">
            <use xlink:href="#a"/>
        </mask>
        <use fill="#333" fill-rule="nonzero" xlink:href="#a"/>
        <g fill="#333" mask="url(#b)">
            <path d="M0 0h24v24H0z"/>
        </g>
    </g>
</svg>
