<svg xmlns="http://www.w3.org/2000/svg" xmlns:xlink="http://www.w3.org/1999/xlink" width="24" height="24" style="background:#333" viewBox="0 0 24 24">
    <defs>
        <path id="a" d="M13.2 4.3a.5.5 0 0 1 .5.5l-.001 3.1H20.4a.5.5 0 0 1 .492.41l.008.09v7.8a.5.5 0 0 1-.992.09l-.008-.09V8.9h-6.2v9.8h6.7a.5.5 0 0 1 .09.992l-.09.008H9.6a.5.5 0 0 1-.5-.5v-3.1H7.7v3.1a.5.5 0 0 1-.5.5H3.6a.5.5 0 0 1-.5-.5V4.8a.5.5 0 0 1 .5-.5h9.6zm-.5 1H4.1v13.4h2.6v-3.1a.5.5 0 0 1 .5-.5h2.4a.5.5 0 0 1 .5.5v3.1h2.6V5.3zm-5.3 5.5a1 1 0 0 1 1 1v.4a1 1 0 0 1-1 1H7a1 1 0 0 1-1-1v-.4a1 1 0 0 1 1-1h.4zm9.6 0a1 1 0 0 1 1 1v.4a1 1 0 0 1-1 1h-.4a1 1 0 0 1-1-1v-.4a1 1 0 0 1 1-1h.4zM7.4 7.2a1 1 0 0 1 1 1v.4a1 1 0 0 1-1 1H7a1 1 0 0 1-1-1v-.4a1 1 0 0 1 1-1h.4z"/>
    </defs>
    <g fill="none" fill-rule="evenodd">
        <path fill="#333" d="M0 0h24v24H0z"/>
        <mask id="b" fill="#fff">
            <use xlink:href="#a"/>
        </mask>
        <use fill="#FFF" fill-rule="nonzero" xlink:href="#a"/>
        <g fill="#FFF" mask="url(#b)">
            <path d="M0 0h24v24H0z"/>
        </g>
    </g>
</svg>
